<svg width="176" height="178" viewBox="0 0 176 178" fill="none" xmlns="http://www.w3.org/2000/svg">
<path d="M120.069 115.25H123.094L123.918 112.338L148.262 26.25H170.269L167.759 33.0833H156.405H153.39L152.56 35.9826L127.914 122.083H36.5146L33.6803 115.25H120.069ZM69.3333 144.625C69.3333 148.605 66.1554 151.75 62.3333 151.75C58.5112 151.75 55.3333 148.605 55.3333 144.625C55.3333 140.65 58.513 137.5 62.3333 137.5C66.1537 137.5 69.3333 140.65 69.3333 144.625ZM92 144.625C92 140.645 95.1779 137.5 99 137.5C102.82 137.5 106 140.65 106 144.625C106 148.605 102.822 151.75 99 151.75C95.1779 151.75 92 148.605 92 144.625ZM5.99077 48.5H118.025L105.761 92.4167H24.2161L5.99077 48.5Z" stroke="#B92FEA" stroke-width="8"/>
</svg>
