<?xml version="1.0" encoding="iso-8859-1"?>
<!-- Generator: Adobe Illustrator 16.0.0, SVG Export Plug-In . SVG Version: 6.00 Build 0)  -->
<!DOCTYPE svg PUBLIC "-//W3C//DTD SVG 1.1//EN" "http://www.w3.org/Graphics/SVG/1.1/DTD/svg11.dtd">
<svg version="1.1" id="Capa_1" xmlns="http://www.w3.org/2000/svg" xmlns:xlink="http://www.w3.org/1999/xlink" x="0px" y="0px"
	 width="1366px" height="768px" viewBox="0 0 1366 768" style="enable-background:new 0 0 1366 768;" xml:space="preserve">
<g>
	<linearGradient id="SVGID_1_" gradientUnits="userSpaceOnUse" x1="541.2178" y1="396.9746" x2="847.1826" y2="396.9746">
		<stop  offset="0.6702" style="stop-color:#000000"/>
		<stop  offset="1" style="stop-color:#AA7B00"/>
	</linearGradient>
	<linearGradient id="SVGID_2_" gradientUnits="userSpaceOnUse" x1="540.7178" y1="396.9746" x2="847.6826" y2="396.9746">
		<stop  offset="0.37" style="stop-color:#000000"/>
		<stop  offset="0.7626" style="stop-color:#A07402;stop-opacity:0.235"/>
		<stop  offset="1" style="stop-color:#AA7B00;stop-opacity:0.2"/>
	</linearGradient>
	<path style="fill:url(#SVGID_1_);stroke:url(#SVGID_2_);stroke-miterlimit:10;" d="M771.719,281.076
		c12.564-5.5,23.083,7.335,31.642,14.493c0,0,7.168,5.644,12.404,5.729c7.737,0.125,15.735,0.203,23.735-1.797c2,0,5,1,6,2
		c4,5,0,12-3,16c-10,11-25,12-38,17c-7,3-14,8-16,15c-4,16,8,27,17,39c16,22,3,49-18,61c-2,1-2,4-4,5c-8,5-9,13-10,21
		c-1,5,1,10,5,14c5,5,13,5,18,10c-1,5-5,6-9,7c-8,0-16,2-24,1c-5-1-9-2-10-8c-2-11,2-22-4-32c-2-5-10-3-15-2c-21,7-41,11-63,8
		c-17-3-37,1-44,18c-2,6,5,7,9,8c12,1,24-8,35,0c1,1,2,3,2,4c-1,5-6,7-11,7c-11,0-22-6-33-1c-3,1-6-2-9-1c-15,7-30,6-46,5
		c-5-1-10-3-15-5c-16-10-22-32-16-49c1-2,2-5,3-7c32-39,79-53,123-70c15-6,31-9,45-17c9-5,14-15,16-26c2-13,2-26,5.498-37.774
		l0.246-1.973"/>
	<linearGradient id="SVGID_3_" gradientUnits="userSpaceOnUse" x1="748.3125" y1="305.5132" x2="796.3126" y2="307.5132">
		<stop  offset="0.1014" style="stop-color:#000000"/>
		<stop  offset="0.1853" style="stop-color:#070500"/>
		<stop  offset="0.3098" style="stop-color:#1B1400"/>
		<stop  offset="0.4595" style="stop-color:#3C2C00"/>
		<stop  offset="0.6287" style="stop-color:#6A4D00"/>
		<stop  offset="0.8122" style="stop-color:#A47600"/>
		<stop  offset="0.8306" style="stop-color:#AA7B00"/>
	</linearGradient>
	<path style="fill:url(#SVGID_3_);" d="M770.068,333.339c-16.264,2.122-29.477-21.358-34.813-30.966
		c-0.576-1.037-1.062-1.952-1.45-2.707c0,0-2.381-2.162,1.421-5.098c0,0,32.257-15.446,34.486-15.318s2.886,2.298,2.886,2.298
		s0.107,0.641,0.283,1.779c0.096,0.621,0.213,1.39,0.343,2.284C773.224,285.611,780.886,331.928,770.068,333.339z"/>
</g>
<path style="fill:#FFFFFF;" d="M557.5,471c0,0-7.5,30.5,30.5,30.5C588,501.5,569.5,494.5,557.5,471z"/>
</svg>
