<svg width="676" height="671" viewBox="0 0 676 671" fill="none" xmlns="http://www.w3.org/2000/svg">
<g clip-path="url(#clip0)">
<g filter="url(#filter0_d)">
<path d="M259.615 171.259C242.733 198.065 240.148 230.326 234.46 260.951C225.533 308.408 208.04 354.175 199.224 401.658C196.151 418.27 194.162 435.114 189.282 451.335C182.579 473.623 170.62 494.194 159.399 514.78C140.293 549.95 122.953 586.523 115.819 625.395C113.595 637.513 115.333 653.968 128.181 656.565C131.852 657.331 135.982 656.721 139.111 658.668C140.946 659.799 142.114 661.629 143.589 663.149C149.235 668.969 158.954 669.644 167.019 667.527C175.084 665.409 182.12 660.76 189.602 657.136C219.303 642.851 254.511 644.551 287.829 646.578C293.962 646.941 300.844 647.655 304.724 652.123C306.685 654.396 307.506 657.318 308.965 659.916C314.139 669.331 327.794 673.708 338.055 669.24C341.893 667.566 345.189 664.877 349.18 663.5C361.376 659.254 374.21 668.461 387.266 668.526C406.039 668.604 420.167 650.032 438.925 649.396C451.719 648.967 463.413 657.11 476.205 657.188C485.801 657.188 494.645 652.668 502.988 648.265L560 618.187C544.758 598.277 526.089 580.863 504.754 566.652C489.055 556.262 484.814 535.482 475.232 519.897C468.905 509.585 462.509 499.117 459.422 487.597C457.197 479.285 456.752 470.635 454.556 462.31C451.51 450.829 445.238 440.374 440.261 429.504C420.514 386.436 421.183 337.292 403.092 293.588C398.001 281.277 391.453 269.497 386.933 256.989C380.982 240.521 378.659 223.067 372.652 206.625C366.646 190.182 355.967 174.038 338.932 166.961C331.54 164.121 323.669 162.525 315.681 162.246C295.784 161.05 278.082 164.245 259.615 171.259Z" fill="#3F3D56"/>
</g>
<path opacity="0.1" d="M505.542 567.315C489.816 556.909 485.582 536.095 475.973 520.484C469.636 510.156 463.228 499.671 460.137 488.131C457.909 479.805 457.463 471.142 455.262 462.803C452.227 451.303 445.944 440.831 440.959 429.943C421.181 386.805 421.835 337.58 403.729 293.805C398.618 281.473 392.058 269.675 387.532 257.146C381.585 240.651 379.176 223.168 373.227 206.699C367.281 190.23 356.515 174.059 339.453 166.97C332.17 163.926 324.133 162.741 316.167 162.247C309.446 161.832 302.701 161.94 296 162.572C302.603 163.087 309.077 164.58 315.178 166.996C332.197 174.085 342.936 190.256 348.952 206.725C354.969 223.194 357.308 240.677 363.257 257.172C367.783 269.701 374.397 281.499 379.44 293.831C397.546 337.606 396.892 386.831 416.669 429.969C421.669 440.857 427.95 451.329 430.987 462.829C433.186 471.168 433.632 479.831 435.86 488.157C438.953 499.697 445.359 510.182 451.696 520.511C461.293 536.121 465.541 556.856 481.265 567.342C502.642 581.566 521.35 599 536.628 618.936L479.523 649.063C474.75 651.735 469.74 654.025 464.552 655.906C468.593 657.192 472.819 657.899 477.087 658C486.683 658 495.541 653.473 503.897 649.063L561 618.936C545.701 598.981 526.958 581.537 505.542 567.315Z" fill="black"/>
<path opacity="0.2" d="M275 645C276.067 644.738 277.124 644.455 278.181 644.171C279.119 643.92 280.047 643.657 280.986 643.395C281.035 641.308 281.104 639.011 281.173 636.525C281.756 617.059 283.129 585.72 286.369 547.962C286.547 545.938 286.725 543.9 286.902 541.848C288.058 529.052 289.411 515.595 291.031 501.646C291.081 501.184 291.14 500.733 291.189 500.272C292.503 488.965 293.995 477.355 295.674 465.524C296.849 457.249 298.12 448.882 299.487 440.426C299.585 439.838 299.684 439.24 299.783 438.653C300.178 436.209 300.583 433.776 300.998 431.322C302.153 424.494 303.388 417.624 304.682 410.754C309.236 386.589 314.658 362.277 321.128 338.626C327.701 314.098 335.795 290.059 345.358 266.666C352.776 248.494 361.611 231.012 371.771 214.403C371.919 214.161 372.067 213.931 372.215 213.689C385.204 192.912 400.05 175.281 417 162.097L413.484 157C397.245 169.638 382.349 186.454 368.797 207.449C368.728 207.554 368.669 207.648 368.6 207.753C358.409 223.799 349.514 240.732 342.009 258.369C331.961 281.962 323.485 306.274 316.644 331.127C310.164 354.222 304.353 379.244 299.21 406.192C297.402 415.684 295.678 425.409 294.034 435.37C293.758 437.069 293.481 438.768 293.204 440.478C293.204 440.499 293.194 440.53 293.194 440.551C292.77 443.174 292.365 445.796 291.95 448.449C290.923 455.13 289.955 461.759 289.046 468.335C287.643 478.467 286.376 488.423 285.243 498.206C284.868 501.436 284.506 504.642 284.157 507.823C283.663 512.312 283.195 516.742 282.754 521.112C282.132 527.195 281.563 533.15 281.045 538.974L280.897 540.578C280.818 541.501 280.739 542.424 280.66 543.337C276.65 589.265 275.395 626.362 275 645Z" fill="black" fill-opacity="0.8"/>
<path opacity="0.2" d="M450.499 168C466.792 168 480 153.897 480 136.501C480 119.103 466.792 105 450.499 105C434.207 105 421 119.103 421 136.501C421 153.897 434.207 168 450.499 168Z" fill="black" fill-opacity="0.8"/>
<path opacity="0.2" d="M441 433C457.568 433 471 418.897 471 401.501C471 384.103 457.568 370 441 370C424.432 370 411 384.103 411 401.501C411 418.897 424.432 433 441 433Z" fill="black" fill-opacity="0.8"/>
<path opacity="0.2" d="M431.096 273.616C397.131 286.778 363 278.332 363 278.332C363 278.332 383.938 248.546 417.904 235.384C451.869 222.222 486 230.668 486 230.668C486 230.668 465.062 260.454 431.096 273.616Z" fill="black" fill-opacity="0.8"/>
<path d="M331.297 30.2598C327.252 29.6752 323.124 30.2598 319.036 30.2598C308.979 30.1426 306.119 41.464 296.09 42.3872C283.856 43.5057 266.895 36.291 256.67 42.6607C254.8 43.8747 252.822 44.9354 250.755 45.8325C242.386 49.2634 232.161 47.99 224.503 52.6552C216.845 57.3218 214.042 66.5378 214.042 75.0635C213.849 78.1153 214.325 81.1713 215.436 84.0451C216.511 86.4761 218.296 88.5815 219.371 91.0124C220.123 92.7286 220.514 94.5605 221.142 96.3287C222.851 100.376 225.202 104.161 228.117 107.559L245.832 130.526C250.476 136.557 248.622 144.018 249.374 151.413C249.933 157.094 251.355 162.709 251.341 168.403C251.327 174.095 249.653 180.1 245.093 184C255.582 183.402 266.038 182.505 276.463 181.31C285.057 180.322 293.621 179.138 302.255 178.566C320.389 177.371 338.607 178.918 356.658 180.465C353.672 177.007 352.319 172.185 351.58 167.805C349.124 153.273 347.577 138.052 352.709 124.145C354.356 119.986 356.291 115.931 358.499 112.004L364.008 101.671C371.806 87.0606 379.087 72.087 380.748 55.84C381.37 51.6683 380.837 47.4184 379.199 43.4927C376.786 38.4615 371.569 34.9264 365.947 33.2103C360.24 31.6953 354.275 31.2105 348.372 31.7806C342.876 32.0281 336.793 31.0398 331.297 30.2598Z" fill="#D0CDE1"/>
<path d="M219.243 87.5866C219.973 89.2945 220.35 91.1191 220.959 92.8774C222.612 96.9067 224.89 100.674 227.716 104.054C231.148 108.633 236.662 119.422 240.081 124C242.128 117.279 245.129 110.859 249 104.921L219.378 59C219.378 59 217.053 60.1895 214.284 67.6663C214.134 69.0243 214.054 70.3822 214.04 71.7157C213.854 74.7514 214.313 77.7928 215.391 80.6542C216.472 83.072 218.203 85.1688 219.243 87.5866Z" fill="#D0CDE1"/>
<path d="M351 80.1278L362.521 105C370.304 90.4821 379.264 72.6925 380.92 56.5642C381.075 53.5796 381.005 50.5878 380.707 47.6104C379.444 45.1825 377.777 42.9514 375.768 41L351 80.1278Z" fill="#D0CDE1"/>
</g>
<defs>
<filter id="filter0_d" x="111" y="162" width="453" height="517" filterUnits="userSpaceOnUse" color-interpolation-filters="sRGB">
<feFlood flood-opacity="0" result="BackgroundImageFix"/>
<feColorMatrix in="SourceAlpha" type="matrix" values="0 0 0 0 0 0 0 0 0 0 0 0 0 0 0 0 0 0 127 0"/>
<feOffset dy="4"/>
<feGaussianBlur stdDeviation="2"/>
<feColorMatrix type="matrix" values="0 0 0 0 0 0 0 0 0 0 0 0 0 0 0 0 0 0 0.25 0"/>
<feBlend mode="normal" in2="BackgroundImageFix" result="effect1_dropShadow"/>
<feBlend mode="normal" in="SourceGraphic" in2="effect1_dropShadow" result="shape"/>
</filter>
<clipPath id="clip0">
<rect width="676" height="671" fill="white"/>
</clipPath>
</defs>
</svg>
