<svg width="676" height="671" viewBox="0 0 676 671" fill="none" xmlns="http://www.w3.org/2000/svg">
<path opacity="0.2" d="M392.35 661.63C393.43 661.38 394.5 661.11 395.57 660.84C396.52 660.6 397.46 660.35 398.41 660.1C398.46 658.11 398.53 655.92 398.6 653.55C399.19 634.99 400.58 605.11 403.86 569.11C404.04 567.18 404.22 565.237 404.4 563.28C405.57 551.08 406.94 538.25 408.58 524.95C408.63 524.51 408.69 524.08 408.74 523.64C410.07 512.86 411.58 501.79 413.28 490.51C414.47 482.62 415.757 474.643 417.14 466.58C417.24 466.02 417.34 465.45 417.44 464.89C417.84 462.56 418.25 460.24 418.67 457.9C419.84 451.39 421.09 444.84 422.4 438.29C427.01 415.25 432.5 392.07 439.05 369.52C445.704 346.134 453.899 323.214 463.58 300.91C471.09 283.584 480.034 266.916 490.32 251.08C490.47 250.85 490.62 250.63 490.77 250.4C503.92 230.59 518.95 213.78 536.11 201.21L532.55 196.35C516.11 208.4 501.03 224.433 487.31 244.45C487.24 244.55 487.18 244.64 487.11 244.74C476.793 260.039 467.788 276.184 460.19 293C450.017 315.494 441.436 338.674 434.51 362.37C427.95 384.39 422.067 408.247 416.86 433.94C415.03 442.99 413.284 452.263 411.62 461.76C411.34 463.38 411.06 465 410.78 466.63C410.78 466.65 410.77 466.68 410.77 466.7C410.34 469.2 409.93 471.7 409.51 474.23C408.47 480.6 407.49 486.92 406.57 493.19C405.15 502.85 403.867 512.343 402.72 521.67C402.34 524.75 401.974 527.807 401.62 530.84C401.12 535.12 400.647 539.343 400.2 543.51C399.57 549.31 398.994 554.987 398.47 560.54L398.32 562.07C398.24 562.95 398.16 563.83 398.08 564.7C394.02 608.49 392.75 643.86 392.35 661.63Z" fill="black"/>
<path opacity="0.2" d="M469.01 632.91C469.12 632.85 469.24 632.79 469.35 632.73C471.41 631.66 473.45 630.57 475.49 629.45C476.16 621.47 477.06 612.7 478.24 603.48C478.49 601.58 478.74 599.65 479.02 597.71C479.16 596.67 479.31 595.62 479.46 594.56C480.64 586.44 482.04 578.06 483.72 569.64C490.55 535.28 501.89 500.16 520.72 478.48C521.73 477.31 522.76 476.19 523.831 475.1C526.482 472.345 529.362 469.819 532.441 467.55L528.881 462.7C524.584 465.878 520.629 469.494 517.081 473.49C515.831 474.88 514.611 476.327 513.421 477.83C496.091 499.64 485.27 531.93 478.531 563.9C476.771 572.24 475.291 580.57 474.031 588.68C473.711 590.8 473.404 592.9 473.111 594.98C471.16 608.72 469.87 621.7 469.01 632.91Z" fill="black"/>
<path opacity="0.2" d="M569.738 206.07C586.356 206.07 599.827 192.599 599.827 175.982C599.827 159.364 586.356 145.893 569.738 145.893C553.121 145.893 539.65 159.364 539.65 175.982C539.65 192.599 553.121 206.07 569.738 206.07Z" fill="black"/>
<path opacity="0.2" d="M560.049 460.079C576.666 460.079 590.138 446.608 590.138 429.991C590.138 413.373 576.666 399.902 560.049 399.902C543.432 399.902 529.96 413.373 529.96 429.991C529.96 446.608 543.432 460.079 560.049 460.079Z" fill="black"/>
<path opacity="0.2" d="M450.286 221.521C456.666 257.519 442.581 290.114 442.581 290.114C442.581 290.114 418.152 264.345 411.771 228.348C405.391 192.351 419.476 159.756 419.476 159.756C419.476 159.756 443.906 185.524 450.286 221.521Z" fill="black"/>
<path opacity="0.2" d="M550.283 306.971C515.948 319.526 481.446 311.469 481.446 311.469C481.446 311.469 502.612 283.056 536.947 270.501C571.282 257.946 605.784 266.003 605.784 266.003C605.784 266.003 584.618 294.416 550.283 306.971Z" fill="black"/>
<path opacity="0.2" d="M556.105 536.333C532.039 545.133 507.822 539.392 507.822 539.392C507.822 539.392 522.624 519.384 546.69 510.584C570.756 501.784 594.973 507.525 594.973 507.525C594.973 507.525 580.171 527.533 556.105 536.333Z" fill="black"/>
<path d="M439.96 531.27L441.18 531.9C441.061 533.2 440.77 534 439.96 531.27Z" fill="#2F2E41"/>
<path d="M441.571 531.69C441.581 531.83 441.6 531.98 441.61 532.12L441.18 531.9C441.19 531.77 441.2 531.63 441.22 531.49C441.321 529.74 441.2 527.67 441.571 531.69Z" fill="#2F2E41"/>
<path d="M311.683 483.85C402.373 483.85 475.892 410.331 475.892 319.641C475.892 228.951 402.373 155.432 311.683 155.432C220.993 155.432 147.474 228.951 147.474 319.641C147.474 410.331 220.993 483.85 311.683 483.85Z" fill="#2F2E41"/>
<path d="M325.201 477.157C380.123 477.157 424.645 432.634 424.645 377.713C424.645 322.791 380.123 278.268 325.201 278.268C270.279 278.268 225.756 322.791 225.756 377.713C225.756 432.634 270.279 477.157 325.201 477.157Z" fill="#D0CDE1"/>
<path d="M552.27 568.31L552.15 568.34L529.02 573.89L480.86 585.45L474.29 587.03L401.05 604.6L394.83 606.1L217.14 648.74C205.128 644.145 193.392 638.86 181.99 632.91C181.88 632.85 181.76 632.79 181.65 632.73C181 632.39 180.36 632.06 179.72 631.71C178.31 630.97 176.907 630.217 175.51 629.45C167.56 625.08 159.814 620.407 152.27 615.43C150.33 614.16 148.41 612.87 146.51 611.56C145.9 611.14 145.3 610.72 144.7 610.3C144.07 609.86 143.44 609.42 142.82 608.98C141.17 607.81 139.53 606.627 137.9 605.43C155.16 574.06 196.26 553.21 237.36 541.8C268.38 533.18 275.2 504.85 274.61 479.64C274.46 473.89 273.973 468.153 273.15 462.46C271.897 453.399 269.904 444.456 267.19 435.72L366.64 439.04L376.9 462.68C376.62 465.277 376.529 467.89 376.63 470.5C377.41 489.89 389.38 502.43 404.15 510.52C406.07 511.57 408.04 512.55 410.04 513.46C434.26 524.47 462.77 525.22 462.77 525.22C471.452 524.26 480.221 524.425 488.86 525.71C490.96 526.03 493 526.413 494.98 526.86C506.541 529.444 517.462 534.331 527.09 541.23C530.768 543.846 534.248 546.731 537.5 549.86C543.282 555.271 548.256 561.484 552.27 568.31Z" fill="#D0CDE1"/>
<path d="M567.19 581.42C566.77 581.81 566.35 582.19 565.93 582.58C557.121 590.63 547.892 598.207 538.28 605.28C531.83 610.05 525.21 614.58 518.42 618.87C516.93 619.82 515.43 620.753 513.92 621.67C511.3 623.27 508.657 624.833 505.99 626.36C502.51 628.36 498.987 630.297 495.42 632.17C493.98 632.94 492.531 633.68 491.08 634.42C488.96 635.51 486.83 636.56 484.68 637.59C484.31 637.77 483.94 637.95 483.57 638.12L479.34 634.61L529.02 573.89L539.01 561.68C539.01 561.68 543 561.68 552.15 568.34C557.208 572.104 561.987 576.228 566.45 580.68C566.69 580.93 566.94 581.17 567.19 581.42Z" fill="#D0CDE1"/>
<path d="M566.49 580.74C566.356 581.368 566.169 581.984 565.93 582.58C557.121 590.63 547.892 598.207 538.28 605.28C529.941 608.286 521.29 610.342 512.49 611.41C512.49 611.41 513.24 615.17 513.92 621.67C511.3 623.27 508.657 624.833 505.99 626.36C502.51 628.36 498.987 630.297 495.42 632.17C493.98 632.94 492.531 633.68 491.08 634.42C488.96 635.51 486.83 636.56 484.68 637.59C484.31 637.77 483.94 637.95 483.57 638.12C482.17 638.8 480.75 639.46 479.33 640.12C460.837 648.65 441.604 655.475 421.87 660.51C421.76 660.54 421.66 660.56 421.55 660.59C420.26 660.92 418.96 661.24 417.66 661.55C416.69 661.79 415.71 662.02 414.73 662.24C414.61 662.279 414.486 662.31 414.36 662.33C412.35 662.8 410.34 663.25 408.31 663.66C407.17 663.9 406.03 664.14 404.89 664.37C404.2 664.52 403.5 664.65 402.81 664.78C401.94 664.95 401.08 665.11 400.21 665.28C399.73 665.38 399.25 665.46 398.76 665.54C397.66 665.74 396.56 665.94 395.47 666.13C393.61 666.45 391.73 666.76 389.86 667.04C388.5 667.25 387.15 667.45 385.79 667.64C384.19 667.87 382.59 668.08 380.98 668.28C380.54 668.35 380.1 668.4 379.66 668.45C379.09 668.52 378.521 668.59 377.95 668.66C376.8 668.8 375.65 668.93 374.49 669.05C373.89 669.12 373.3 669.18 372.7 669.24C371.56 669.36 370.42 669.47 369.28 669.57C367.81 669.71 366.34 669.83 364.86 669.95C363.06 670.09 361.27 670.22 359.46 670.33C358.3 670.4 357.14 670.47 355.97 670.53C352.99 670.69 350.01 670.8 347.01 670.88C345.52 670.92 344.02 670.95 342.52 670.97H342.49C341 670.99 339.5 671 338 671C322.799 671.006 307.615 669.991 292.55 667.96C281.5 666.48 270.627 664.473 259.93 661.94C259.5 661.84 259.07 661.74 258.65 661.63C257.57 661.38 256.5 661.11 255.43 660.84C254.48 660.6 253.54 660.35 252.59 660.1C228.107 653.729 204.423 644.607 181.99 632.91C181.88 632.85 181.76 632.79 181.65 632.73C181 632.39 180.36 632.06 179.72 631.71C234.61 618.92 321.35 598.75 396.62 581.47C398.73 580.99 400.827 580.51 402.91 580.03C430.71 573.65 456.75 567.71 478.781 562.74C481.061 562.23 483.294 561.73 485.48 561.24C509.15 555.92 527.531 551.88 537.5 549.86C540.188 549.246 542.905 548.769 545.64 548.43L566.45 580.68L566.49 580.74Z" fill="#2F2E41"/>
<path d="M161.45 249.765C188.464 249.765 210.363 227.866 210.363 200.851C210.363 173.837 188.464 151.938 161.45 151.938C134.435 151.938 112.536 173.837 112.536 200.851C112.536 227.866 134.435 249.765 161.45 249.765Z" fill="#2F2E41"/>
<path d="M461.917 235.79C488.931 235.79 510.83 213.89 510.83 186.876C510.83 159.862 488.931 137.963 461.917 137.963C434.903 137.963 413.004 159.862 413.004 186.876C413.004 213.89 434.903 235.79 461.917 235.79Z" fill="#2F2E41"/>
<path d="M409.51 165.913C409.512 153.849 413.972 142.212 422.033 133.236C430.094 124.261 441.188 118.581 453.183 117.289C446.352 116.543 439.44 117.245 432.899 119.348C426.357 121.451 420.332 124.909 415.216 129.497C410.1 134.084 406.008 139.698 403.207 145.973C400.406 152.247 398.958 159.042 398.958 165.913C398.958 172.785 400.406 179.579 403.207 185.854C406.008 192.128 410.1 197.742 415.216 202.33C420.332 206.917 426.357 210.375 432.899 212.479C439.44 214.582 446.352 215.284 453.183 214.537C441.188 213.245 430.094 207.566 422.033 198.59C413.972 189.615 409.512 177.977 409.51 165.913V165.913Z" fill="#2F2E41"/>
<path d="M106.796 240.416C98.3545 231.798 93.3954 220.364 92.872 208.312C92.3486 196.259 96.2979 184.438 103.961 175.12C98.5596 179.368 94.1138 184.706 90.9134 190.787C87.7129 196.868 85.8295 203.554 85.386 210.411C84.9424 217.269 85.9486 224.142 88.339 230.585C90.7294 237.027 94.4503 242.893 99.2594 247.801C104.068 252.709 109.858 256.549 116.25 259.071C122.642 261.592 129.494 262.738 136.359 262.434C143.223 262.131 149.947 260.384 156.092 257.308C162.236 254.233 167.664 249.897 172.021 244.583C162.549 252.055 150.65 255.762 138.611 254.993C126.571 254.224 115.241 249.032 106.796 240.416V240.416Z" fill="#2F2E41"/>
<path d="M311.683 242.777C253.796 242.777 206.869 270.151 206.869 303.919C206.869 319.028 216.302 332.837 231.872 343.504L252.05 328.884L246.563 351.788C248.84 352.844 251.164 353.865 253.589 354.809L283.733 319.641V362.845C292.976 364.326 302.322 365.066 311.683 365.06C369.571 365.06 416.498 337.686 416.498 303.919C416.498 270.151 369.571 242.777 311.683 242.777Z" fill="#2F2E41"/>
<path d="M413.004 186.876C413.004 186.876 405.407 221.814 452.878 235.79L413.004 186.876Z" fill="#2F2E41"/>
<path d="M206.869 193.235C206.869 193.235 224.338 232.296 171.931 249.765L206.869 193.235Z" fill="#2F2E41"/>
<path d="M232.776 416.754C237.183 415.52 238.355 405.945 235.394 395.367C232.433 384.79 226.46 377.215 222.052 378.449C217.645 379.683 216.473 389.258 219.434 399.836C222.395 410.413 228.368 417.988 232.776 416.754Z" fill="#D0CDE1"/>
<path d="M434.574 381.537C435.249 370.573 432.093 361.457 427.525 361.176C422.957 360.895 418.707 369.554 418.031 380.518C417.356 391.482 420.512 400.597 425.08 400.879C429.648 401.16 433.899 392.5 434.574 381.537Z" fill="#D0CDE1"/>
</svg>
