<svg width="676" height="671" viewBox="0 0 676 671" fill="none" xmlns="http://www.w3.org/2000/svg">
<g clip-path="url(#clip0)">
<path d="M424 113.678C424 86.7936 413.382 65 401.075 65H213.565C201.259 65 192 86.7936 192 113.678V507.165C192 534.049 201.261 555 213.565 555H401.075C413.382 555 424 534.049 424 507.165V113.678Z" fill="#2F2E41"/>
<path d="M538 498.794C538 469.675 526.475 445 512.261 445H119.739C105.525 445 94 469.675 94 498.794V503.189C94 532.308 105.525 555 119.739 555H512.261C526.475 555 538 532.308 538 503.189V498.794Z" fill="#2F2E41"/>
<path d="M424 393H192V445H424V393Z" fill="#D0CDE1"/>
<path opacity="0.2" d="M371 605C372.067 604.738 373.124 604.455 374.181 604.171C375.119 603.92 376.047 603.658 376.986 603.395C377.035 601.308 377.104 599.011 377.173 596.525C377.756 577.059 379.129 545.72 382.369 507.962C382.547 505.938 382.725 503.9 382.902 501.848C384.058 489.052 385.411 475.595 387.031 461.646C387.081 461.184 387.14 460.733 387.189 460.272C388.503 448.965 389.995 437.355 391.674 425.524C392.849 417.249 394.12 408.882 395.487 400.426C395.585 399.838 395.684 399.24 395.783 398.653C396.178 396.209 396.583 393.776 396.998 391.322C398.153 384.494 399.388 377.624 400.682 370.754C405.236 346.589 410.658 322.277 417.128 298.626C423.701 274.098 431.795 250.059 441.358 226.666C448.776 208.494 457.611 191.012 467.771 174.403C467.919 174.161 468.067 173.931 468.215 173.689C481.204 152.912 496.05 135.281 513 122.097L509.484 117C493.245 129.638 478.349 146.454 464.797 167.449C464.728 167.554 464.669 167.648 464.6 167.753C454.409 183.799 445.514 200.732 438.009 218.369C427.961 241.962 419.485 266.274 412.644 291.127C406.164 314.222 400.353 339.244 395.21 366.192C393.402 375.684 391.678 385.409 390.034 395.37C389.758 397.069 389.481 398.768 389.204 400.478C389.204 400.499 389.194 400.53 389.194 400.551C388.77 403.173 388.365 405.796 387.95 408.449C386.923 415.13 385.955 421.759 385.046 428.335C383.643 438.467 382.376 448.423 381.243 458.206C380.868 461.436 380.506 464.642 380.157 467.823C379.663 472.312 379.195 476.742 378.754 481.112C378.132 487.195 377.563 493.15 377.045 498.974L376.897 500.578C376.818 501.501 376.739 502.424 376.66 503.337C372.65 549.265 371.395 586.362 371 605Z" fill="black" fill-opacity="0.8"/>
<path opacity="0.2" d="M546.499 128C562.792 128 576 113.897 576 96.5005C576 79.1029 562.792 65 546.499 65C530.207 65 517 79.1029 517 96.5005C517 113.897 530.207 128 546.499 128Z" fill="black" fill-opacity="0.8"/>
<path opacity="0.2" d="M537 393C553.568 393 567 378.897 567 361.501C567 344.103 553.568 330 537 330C520.432 330 507 344.103 507 361.501C507 378.897 520.432 393 537 393Z" fill="black" fill-opacity="0.8"/>
<path opacity="0.2" d="M527.096 233.616C493.131 246.778 459 238.332 459 238.332C459 238.332 479.938 208.546 513.904 195.384C547.869 182.222 582 190.668 582 190.668C582 190.668 561.062 220.454 527.096 233.616Z" fill="black" fill-opacity="0.8"/>
</g>
<defs>
<clipPath id="clip0">
<rect width="676" height="671" fill="white"/>
</clipPath>
</defs>
</svg>
