<svg width="676" height="671" viewBox="0 0 676 671" fill="none" xmlns="http://www.w3.org/2000/svg">
<g clip-path="url(#clip0)">
<path opacity="0.2" d="M371 605C369.069 604.744 367.156 604.467 365.244 604.19C363.545 603.944 361.865 603.688 360.167 603.431C360.077 601.391 359.952 599.146 359.827 596.716C358.772 577.689 356.287 547.056 350.424 510.149C350.102 508.171 349.78 506.179 349.458 504.173C347.367 491.665 344.917 478.512 341.986 464.877C341.896 464.426 341.789 463.985 341.7 463.534C339.322 452.483 336.623 441.134 333.583 429.57C331.456 421.481 329.155 413.303 326.683 405.037C326.504 404.463 326.325 403.878 326.147 403.304C325.431 400.916 324.699 398.537 323.948 396.138C321.856 389.464 319.621 382.749 317.28 376.034C309.038 352.414 299.224 328.65 287.514 305.532C275.619 281.557 260.969 258.06 243.662 235.194C230.236 217.431 214.247 200.343 195.859 184.109C195.591 183.873 195.323 183.647 195.054 183.411C171.546 163.102 144.677 145.869 114 132.982L120.364 128C149.754 140.354 176.713 156.79 201.24 177.312C201.365 177.414 201.472 177.506 201.597 177.609C220.041 193.293 236.139 209.845 249.722 227.085C267.909 250.145 283.249 273.909 295.63 298.202C307.358 320.777 317.875 345.234 327.183 371.575C330.455 380.853 333.576 390.359 336.551 400.095C337.052 401.756 337.552 403.417 338.053 405.088C338.053 405.109 338.071 405.139 338.071 405.16C338.839 407.723 339.572 410.286 340.323 412.88C342.182 419.41 343.934 425.889 345.579 432.317C348.117 442.22 350.411 451.953 352.462 461.514C353.141 464.672 353.795 467.806 354.428 470.916C355.322 475.303 356.167 479.633 356.967 483.905C358.093 489.851 359.123 495.671 360.059 501.364L360.327 502.932C360.47 503.834 360.613 504.737 360.757 505.628C368.015 550.521 370.285 586.782 371 605Z" fill="black" fill-opacity="0.8"/>
<path opacity="0.2" d="M430 637C431.119 636.744 432.228 636.467 433.337 636.19C434.322 635.944 435.296 635.688 436.281 635.431C436.333 633.391 436.405 631.146 436.478 628.716C437.089 609.689 438.53 579.056 441.93 542.149C442.116 540.171 442.303 538.179 442.489 536.173C443.702 523.665 445.122 510.512 446.822 496.877C446.873 496.426 446.936 495.985 446.987 495.534C448.366 484.483 449.931 473.134 451.693 461.57C452.926 453.481 454.26 445.303 455.694 437.037C455.797 436.463 455.901 435.878 456.005 435.304C456.419 432.916 456.844 430.537 457.279 428.138C458.492 421.464 459.788 414.749 461.145 408.034C465.923 384.414 471.613 360.65 478.402 337.532C485.299 313.557 493.792 290.06 503.826 267.194C511.61 249.431 520.88 232.343 531.541 216.109C531.696 215.873 531.852 215.647 532.007 215.411C545.637 195.102 561.215 177.869 579 164.982L575.31 160C558.271 172.354 542.641 188.79 528.421 209.312C528.349 209.414 528.287 209.506 528.214 209.609C517.521 225.293 508.188 241.845 500.313 259.085C489.769 282.145 480.875 305.909 473.697 330.202C466.898 352.777 460.8 377.234 455.403 403.575C453.507 412.853 451.697 422.359 449.972 432.095C449.682 433.756 449.392 435.417 449.102 437.088C449.102 437.109 449.091 437.139 449.091 437.16C448.646 439.723 448.221 442.286 447.785 444.88C446.708 451.41 445.692 457.889 444.738 464.317C443.267 474.22 441.937 483.953 440.748 493.514C440.354 496.672 439.975 499.806 439.608 502.916C439.09 507.303 438.599 511.633 438.136 515.905C437.483 521.851 436.886 527.671 436.343 533.364L436.188 534.932C436.105 535.834 436.022 536.737 435.939 537.628C431.731 582.521 430.415 618.782 430 637Z" fill="black" fill-opacity="0.8"/>
<path opacity="0.2" d="M596.499 171C612.792 171 626 156.897 626 139.501C626 122.103 612.792 108 596.499 108C580.207 108 567 122.103 567 139.501C567 156.897 580.207 171 596.499 171Z" fill="black" fill-opacity="0.8"/>
<path opacity="0.2" d="M541.096 260.616C507.131 273.778 473 265.332 473 265.332C473 265.332 493.938 235.546 527.904 222.384C561.869 209.222 596 217.668 596 217.668C596 217.668 575.062 247.454 541.096 260.616Z" fill="black" fill-opacity="0.8"/>
<path opacity="0.2" d="M63.089 147.177C79.706 147.177 93.178 133.706 93.178 117.089C93.178 100.471 79.706 87 63.089 87C46.472 87 33 100.471 33 117.089C33 133.706 46.472 147.177 63.089 147.177Z" fill="black"/>
<path opacity="0.2" d="M141.283 235.648C117.217 244.448 93 238.707 93 238.707C93 238.707 107.802 218.699 131.868 209.899C155.934 201.099 180.151 206.84 180.151 206.84C180.151 206.84 165.349 226.848 141.283 235.648Z" fill="black"/>
<path opacity="0.1" d="M400.104 206.862L409.72 315.136C409.72 315.136 389.401 224.326 400.104 206.862Z" fill="black"/>
<g filter="url(#filter0_i)">
<path d="M204.478 27C204.478 27 177.976 35.5298 180.124 60.0014C182.274 84.4715 188.721 161.65 188.721 161.65C188.721 161.65 169.379 327.3 188.721 383.773C208.063 440.244 244.597 553.188 244.597 553.188C244.597 553.188 300.472 562.599 313.367 526.835C313.367 526.835 311.217 404.478 287.578 378.125C263.938 351.772 281.132 344.242 283.28 340.477C285.428 336.713 291.877 331.065 291.877 325.418C291.877 319.77 294.025 299.065 294.025 291.536C294.025 284.006 291.877 285.888 296.175 274.594C300.472 263.299 304.77 259.535 304.77 257.653C304.77 255.77 341.305 156.003 341.305 156.003L388.584 387.538C388.584 387.538 377.839 615.307 382.138 615.307C386.436 615.307 433.716 630.366 450.908 615.307C450.908 615.307 493.889 419.537 485.294 408.243C476.697 396.949 474.548 395.067 476.697 383.773C478.845 372.479 483.143 366.831 478.845 361.184C474.548 355.536 468.1 336.713 474.548 331.065C480.995 325.418 483.143 299.065 483.143 299.065C483.143 299.065 519.678 114.591 496.039 88.2362C472.398 61.883 204.478 27 204.478 27Z" fill="#3F3D56"/>
</g>
</g>
<defs>
<filter id="filter0_i" x="180" y="27" width="324" height="599" filterUnits="userSpaceOnUse" color-interpolation-filters="sRGB">
<feFlood flood-opacity="0" result="BackgroundImageFix"/>
<feBlend mode="normal" in="SourceGraphic" in2="BackgroundImageFix" result="shape"/>
<feColorMatrix in="SourceAlpha" type="matrix" values="0 0 0 0 0 0 0 0 0 0 0 0 0 0 0 0 0 0 127 0" result="hardAlpha"/>
<feOffset dy="4"/>
<feGaussianBlur stdDeviation="2"/>
<feComposite in2="hardAlpha" operator="arithmetic" k2="-1" k3="1"/>
<feColorMatrix type="matrix" values="0 0 0 0 0 0 0 0 0 0 0 0 0 0 0 0 0 0 0.25 0"/>
<feBlend mode="normal" in2="shape" result="effect1_innerShadow"/>
</filter>
<clipPath id="clip0">
<rect width="676" height="671" fill="white"/>
</clipPath>
</defs>
</svg>
