<?xml version="1.0" encoding="utf-8"?>
<!-- Generator: Adobe Illustrator 16.0.0, SVG Export Plug-In . SVG Version: 6.00 Build 0)  -->
<!DOCTYPE svg PUBLIC "-//W3C//DTD SVG 1.1//EN" "http://www.w3.org/Graphics/SVG/1.1/DTD/svg11.dtd">
<svg version="1.1" id="Capa_1" xmlns="http://www.w3.org/2000/svg" xmlns:xlink="http://www.w3.org/1999/xlink" x="0px" y="0px"
	 width="960px" height="560px" viewBox="0 0 960 560" enable-background="new 0 0 960 560" xml:space="preserve">
<rect x="439.5" y="68.13" fill="#FFFFFF" stroke="#999999" stroke-miterlimit="10" width="276.609" height="349.37"/>
<line fill="none" stroke="#999999" stroke-miterlimit="10" x1="461.224" y1="257.491" x2="694.386" y2="257.491"/>
<line fill="none" stroke="#999999" stroke-miterlimit="10" x1="461.224" y1="270.737" x2="694.386" y2="270.737"/>
<line fill="none" stroke="#999999" stroke-miterlimit="10" x1="461.224" y1="283.266" x2="694.386" y2="283.266"/>
<line fill="none" stroke="#999999" stroke-miterlimit="10" x1="461.224" y1="296.867" x2="694.386" y2="296.867"/>
<line fill="none" stroke="#999999" stroke-miterlimit="10" x1="461.224" y1="310.47" x2="694.386" y2="310.47"/>
<line fill="none" stroke="#999999" stroke-miterlimit="10" x1="461.224" y1="325.504" x2="694.386" y2="325.504"/>
<line fill="none" stroke="#999999" stroke-miterlimit="10" x1="461.224" y1="338.391" x2="694.386" y2="338.391"/>
<line fill="none" stroke="#999999" stroke-miterlimit="10" x1="461.224" y1="352.709" x2="694.386" y2="352.709"/>
<line fill="none" stroke="#999999" stroke-miterlimit="10" x1="461.224" y1="366.313" x2="694.386" y2="366.313"/>
<line fill="none" stroke="#999999" stroke-miterlimit="10" x1="461.224" y1="381.347" x2="694.386" y2="381.347"/>
<line fill="none" stroke="#999999" stroke-miterlimit="10" x1="461.224" y1="394.232" x2="694.386" y2="394.232"/>
<line fill="none" stroke="#999999" stroke-miterlimit="10" x1="461.224" y1="201.343" x2="694.386" y2="201.343"/>
<line fill="none" stroke="#999999" stroke-miterlimit="10" x1="461.224" y1="214.944" x2="694.386" y2="214.944"/>
<line fill="none" stroke="#999999" stroke-miterlimit="10" x1="461.224" y1="229.979" x2="694.386" y2="229.979"/>
<line fill="none" stroke="#999999" stroke-miterlimit="10" x1="461.224" y1="242.866" x2="694.386" y2="242.866"/>
<line fill="none" stroke="#999999" stroke-miterlimit="10" x1="461.224" y1="148.671" x2="694.386" y2="148.671"/>
<line fill="none" stroke="#999999" stroke-miterlimit="10" x1="461.224" y1="162.274" x2="694.386" y2="162.274"/>
<line fill="none" stroke="#999999" stroke-miterlimit="10" x1="461.224" y1="177.308" x2="694.386" y2="177.308"/>
<line fill="none" stroke="#999999" stroke-miterlimit="10" x1="461.224" y1="190.194" x2="694.386" y2="190.194"/>
<line fill="none" stroke="#999999" stroke-miterlimit="10" x1="461.224" y1="91.397" x2="694.386" y2="91.397"/>
<line fill="none" stroke="#999999" stroke-miterlimit="10" x1="461.224" y1="105" x2="694.386" y2="105"/>
<line fill="none" stroke="#999999" stroke-miterlimit="10" x1="461.224" y1="120.035" x2="694.386" y2="120.035"/>
<line fill="none" stroke="#999999" stroke-miterlimit="10" x1="461.224" y1="132.921" x2="694.386" y2="132.921"/>
<ellipse fill="#FFFFFF" stroke="#999999" stroke-width="6" stroke-miterlimit="10" cx="490" cy="186.5" rx="133" ry="133.5"/>
<rect x="189.999" y="361.017" transform="matrix(-0.7291 0.6844 -0.6844 -0.7291 781.6948 418.6306)" fill="#B3B3B3" stroke="#B3B3B3" stroke-miterlimit="10" width="235.998" height="6.002"/>
<polygon fill="#999999" stroke="#999999" stroke-miterlimit="10" points="565.759,108.188 418.001,267.892 414.384,263.431 
	562.14,103.727 "/>
<polygon fill="#999999" stroke="#999999" stroke-miterlimit="10" points="563.227,262.208 410.185,114.9 413.282,110.322 
	566.323,257.632 "/>
<rect x="190.585" y="359.533" transform="matrix(-0.7291 0.6844 -0.6844 -0.7291 773.9213 431.6123)" fill="#999999" stroke="#999999" stroke-miterlimit="10" width="221.913" height="18.876"/>
</svg>
