<svg width="676" height="671" viewBox="0 0 676 671" fill="none" xmlns="http://www.w3.org/2000/svg">
<g clip-path="url(#clip0)">
<path opacity="0.2" d="M371 605C369.069 604.744 367.156 604.467 365.244 604.19C363.545 603.944 361.865 603.688 360.167 603.431C360.077 601.391 359.952 599.146 359.827 596.716C358.772 577.689 356.287 547.056 350.424 510.149C350.102 508.171 349.78 506.179 349.458 504.173C347.367 491.665 344.917 478.512 341.986 464.877C341.896 464.426 341.789 463.985 341.7 463.534C339.322 452.483 336.623 441.134 333.583 429.57C331.456 421.481 329.155 413.303 326.683 405.037C326.504 404.463 326.325 403.878 326.147 403.304C325.431 400.916 324.699 398.537 323.948 396.138C321.856 389.464 319.621 382.749 317.28 376.034C309.038 352.414 299.224 328.65 287.514 305.532C275.619 281.557 260.969 258.06 243.662 235.194C230.236 217.431 214.247 200.343 195.859 184.109C195.591 183.873 195.323 183.647 195.054 183.411C171.546 163.102 144.677 145.869 114 132.982L120.364 128C149.754 140.354 176.713 156.79 201.24 177.312C201.365 177.414 201.472 177.506 201.597 177.609C220.041 193.293 236.139 209.845 249.722 227.085C267.909 250.145 283.249 273.909 295.63 298.202C307.358 320.777 317.875 345.234 327.183 371.575C330.455 380.853 333.576 390.359 336.551 400.095C337.052 401.756 337.552 403.417 338.053 405.088C338.053 405.109 338.071 405.139 338.071 405.16C338.839 407.723 339.572 410.286 340.323 412.88C342.182 419.41 343.934 425.889 345.579 432.317C348.117 442.22 350.411 451.953 352.462 461.514C353.141 464.672 353.795 467.806 354.428 470.916C355.322 475.303 356.167 479.633 356.967 483.905C358.093 489.851 359.123 495.671 360.059 501.364L360.327 502.932C360.47 503.834 360.613 504.737 360.757 505.628C368.015 550.521 370.285 586.782 371 605Z" fill="black" fill-opacity="0.8"/>
<path opacity="0.2" d="M371 682C372.119 681.744 373.228 681.467 374.337 681.19C375.322 680.944 376.296 680.688 377.281 680.431C377.333 678.391 377.405 676.146 377.478 673.716C378.089 654.689 379.53 624.056 382.93 587.149C383.116 585.171 383.303 583.179 383.489 581.173C384.702 568.665 386.122 555.512 387.822 541.877C387.873 541.426 387.936 540.985 387.987 540.534C389.366 529.483 390.931 518.134 392.693 506.57C393.926 498.481 395.26 490.303 396.694 482.037C396.797 481.463 396.901 480.878 397.005 480.304C397.419 477.916 397.844 475.537 398.279 473.138C399.492 466.464 400.788 459.749 402.145 453.034C406.923 429.414 412.613 405.65 419.402 382.532C426.299 358.557 434.792 335.06 444.826 312.194C452.61 294.431 461.88 277.343 472.541 261.109C472.696 260.873 472.852 260.647 473.007 260.411C486.637 240.102 502.215 222.869 520 209.982L516.31 205C499.271 217.354 483.641 233.79 469.421 254.312C469.349 254.414 469.287 254.506 469.214 254.609C458.521 270.293 449.188 286.845 441.313 304.085C430.769 327.145 421.875 350.909 414.697 375.202C407.898 397.777 401.8 422.234 396.403 448.575C394.507 457.853 392.697 467.359 390.972 477.095C390.682 478.756 390.392 480.417 390.102 482.088C390.102 482.109 390.091 482.139 390.091 482.16C389.646 484.723 389.221 487.286 388.785 489.88C387.708 496.41 386.692 502.889 385.738 509.317C384.267 519.22 382.937 528.953 381.748 538.514C381.354 541.672 380.975 544.806 380.608 547.916C380.09 552.303 379.599 556.633 379.136 560.905C378.483 566.851 377.886 572.671 377.343 578.364L377.188 579.932C377.105 580.834 377.022 581.737 376.939 582.628C372.731 627.521 371.415 663.782 371 682Z" fill="black" fill-opacity="0.8"/>
<path opacity="0.2" d="M517.499 223C533.792 223 547 208.897 547 191.501C547 174.103 533.792 160 517.499 160C501.207 160 488 174.103 488 191.501C488 208.897 501.207 223 517.499 223Z" fill="black" fill-opacity="0.8"/>
<path opacity="0.2" d="M537 393C553.568 393 567 378.897 567 361.501C567 344.103 553.568 330 537 330C520.432 330 507 344.103 507 361.501C507 378.897 520.432 393 537 393Z" fill="black" fill-opacity="0.8"/>
<path opacity="0.2" d="M524.096 302.616C490.131 315.778 456 307.332 456 307.332C456 307.332 476.938 277.546 510.904 264.384C544.869 251.222 579 259.668 579 259.668C579 259.668 558.062 289.454 524.096 302.616Z" fill="black" fill-opacity="0.8"/>
<path d="M386 116.103L463.665 287.299C463.665 287.299 452.878 351.178 463.665 371.62C474.452 392.061 474.452 461.05 472.294 468.715C470.137 476.38 467.98 545.37 521.913 550.481C521.913 550.481 534.858 565.812 549.959 545.371C565.061 524.929 588.792 486.602 580.162 466.161C571.533 445.719 541.33 277.078 539.172 271.968C537.015 266.858 474.452 65 474.452 65L386 116.103Z" fill="#2F2E41"/>
<path d="M223.655 87L209.937 323.964C209.937 323.964 173.355 372.99 168.782 427.465C164.209 481.939 116.195 579.993 116.195 579.993C116.195 579.993 102.477 596.336 143.632 590.888C184.787 585.441 255.665 577.269 262.524 552.756C269.383 528.243 264.81 424.741 305.965 413.846V511.9H326.542L319.683 405.675C319.683 405.675 367.697 326.688 308.251 280.384L326.542 100.618L223.655 87Z" fill="#2F2E41"/>
<path opacity="0.2" d="M63.089 147.177C79.706 147.177 93.178 133.706 93.178 117.089C93.178 100.471 79.706 87 63.089 87C46.472 87 33 100.471 33 117.089C33 133.706 46.472 147.177 63.089 147.177Z" fill="black"/>
<path opacity="0.2" d="M141.283 235.648C117.217 244.448 93 238.707 93 238.707C93 238.707 107.802 218.699 131.868 209.899C155.934 201.099 180.151 206.84 180.151 206.84C180.151 206.84 165.349 226.848 141.283 235.648Z" fill="black"/>
</g>
<defs>
<clipPath id="clip0">
<rect width="676" height="671" fill="white"/>
</clipPath>
</defs>
</svg>
