<svg width="676" height="671" viewBox="0 0 676 671" fill="none" xmlns="http://www.w3.org/2000/svg">
<g clip-path="url(#clip0)">
<path opacity="0.2" d="M371 605C369.069 604.744 367.156 604.467 365.244 604.19C363.545 603.944 361.865 603.688 360.167 603.431C360.077 601.391 359.952 599.146 359.827 596.716C358.772 577.689 356.287 547.056 350.424 510.149C350.102 508.171 349.78 506.179 349.458 504.173C347.367 491.665 344.917 478.512 341.986 464.877C341.896 464.426 341.789 463.985 341.7 463.534C339.322 452.483 336.623 441.134 333.583 429.57C331.456 421.481 329.155 413.303 326.683 405.037C326.504 404.463 326.325 403.878 326.147 403.304C325.431 400.916 324.699 398.537 323.948 396.138C321.856 389.464 319.621 382.749 317.28 376.034C309.038 352.414 299.224 328.65 287.514 305.532C275.619 281.557 260.969 258.06 243.662 235.194C230.236 217.431 214.247 200.343 195.859 184.109C195.591 183.873 195.323 183.647 195.054 183.411C171.546 163.102 144.677 145.869 114 132.982L120.364 128C149.754 140.354 176.713 156.79 201.24 177.312C201.365 177.414 201.472 177.506 201.597 177.609C220.041 193.293 236.139 209.845 249.722 227.085C267.909 250.145 283.249 273.909 295.63 298.202C307.358 320.777 317.875 345.234 327.183 371.575C330.455 380.853 333.576 390.359 336.551 400.095C337.052 401.756 337.552 403.417 338.053 405.088C338.053 405.109 338.071 405.139 338.071 405.16C338.839 407.723 339.572 410.286 340.323 412.88C342.182 419.41 343.934 425.889 345.579 432.317C348.117 442.22 350.411 451.953 352.462 461.514C353.141 464.672 353.795 467.806 354.428 470.916C355.322 475.303 356.167 479.633 356.967 483.905C358.093 489.851 359.123 495.671 360.059 501.364L360.327 502.932C360.47 503.834 360.613 504.737 360.757 505.628C368.015 550.521 370.285 586.782 371 605Z" fill="black" fill-opacity="0.8"/>
<path opacity="0.2" d="M430 637C431.119 636.744 432.228 636.467 433.337 636.19C434.322 635.944 435.296 635.688 436.281 635.431C436.333 633.391 436.405 631.146 436.478 628.716C437.089 609.689 438.53 579.056 441.93 542.149C442.116 540.171 442.303 538.179 442.489 536.173C443.702 523.665 445.122 510.512 446.822 496.877C446.873 496.426 446.936 495.985 446.987 495.534C448.366 484.483 449.931 473.134 451.693 461.57C452.926 453.481 454.26 445.303 455.694 437.037C455.797 436.463 455.901 435.878 456.005 435.304C456.419 432.916 456.844 430.537 457.279 428.138C458.492 421.464 459.788 414.749 461.145 408.034C465.923 384.414 471.613 360.65 478.402 337.532C485.299 313.557 493.792 290.06 503.826 267.194C511.61 249.431 520.88 232.343 531.541 216.109C531.696 215.873 531.852 215.647 532.007 215.411C545.637 195.102 561.215 177.869 579 164.982L575.31 160C558.271 172.354 542.641 188.79 528.421 209.312C528.349 209.414 528.287 209.506 528.214 209.609C517.521 225.293 508.188 241.845 500.313 259.085C489.769 282.145 480.875 305.909 473.697 330.202C466.898 352.777 460.8 377.234 455.403 403.575C453.507 412.853 451.697 422.359 449.972 432.095C449.682 433.756 449.392 435.417 449.102 437.088C449.102 437.109 449.091 437.139 449.091 437.16C448.646 439.723 448.221 442.286 447.785 444.88C446.708 451.41 445.692 457.889 444.738 464.317C443.267 474.22 441.937 483.953 440.748 493.514C440.354 496.672 439.975 499.806 439.608 502.916C439.09 507.303 438.599 511.633 438.136 515.905C437.483 521.851 436.886 527.671 436.343 533.364L436.188 534.932C436.105 535.834 436.022 536.737 435.939 537.628C431.731 582.521 430.415 618.782 430 637Z" fill="black" fill-opacity="0.8"/>
<path opacity="0.2" d="M596.499 171C612.792 171 626 156.897 626 139.501C626 122.103 612.792 108 596.499 108C580.207 108 567 122.103 567 139.501C567 156.897 580.207 171 596.499 171Z" fill="black" fill-opacity="0.8"/>
<path opacity="0.2" d="M541.096 260.616C507.131 273.778 473 265.332 473 265.332C473 265.332 493.938 235.546 527.904 222.384C561.869 209.222 596 217.668 596 217.668C596 217.668 575.062 247.454 541.096 260.616Z" fill="black" fill-opacity="0.8"/>
<path opacity="0.2" d="M63.089 147.177C79.706 147.177 93.178 133.706 93.178 117.089C93.178 100.471 79.706 87 63.089 87C46.472 87 33 100.471 33 117.089C33 133.706 46.472 147.177 63.089 147.177Z" fill="black"/>
<path opacity="0.2" d="M141.283 235.648C117.217 244.448 93 238.707 93 238.707C93 238.707 107.802 218.699 131.868 209.899C155.934 201.099 180.151 206.84 180.151 206.84C180.151 206.84 165.349 226.848 141.283 235.648Z" fill="black"/>
<path d="M182.382 128H169.362L114.022 337.633C114.022 337.633 112.936 477.01 125.958 545C125.958 545 147.66 515.537 162.851 515.537C178.044 515.537 192.148 367.095 192.148 367.095C192.148 367.095 251.829 155.197 182.382 128Z" fill="#3F3D56"/>
<path d="M288.004 51C285.479 51.4964 283.14 52.7262 281.255 54.5492C279.37 56.3723 278.016 58.7144 277.349 61.3038C275.484 67.7205 272.592 73.7602 268.796 79.1675C268.796 79.1675 168.282 128.291 168.282 134.988C168.282 141.686 208.915 284.59 208.915 284.59C208.915 284.59 211.053 373.903 193.945 393.999C176.837 414.094 159.727 487.778 164.005 494.477C168.282 501.176 134.064 516.804 146.897 527.969C159.727 539.134 339.367 646.31 446.298 597.187C446.298 597.187 448.436 577.092 446.298 563.695C444.159 550.299 459.128 505.642 454.851 490.011C450.573 474.382 454.851 313.617 454.851 313.617L476.891 123.252C477.313 119.635 476.5 115.981 474.595 112.928C472.693 109.875 469.82 107.621 466.481 106.561C441.833 98.7389 384.673 66.7152 376.793 73.5851C366.591 82.4799 302.936 76.4216 288.004 51Z" fill="#3F3D56"/>
<path d="M457.633 109.163L457.771 109.107C460.825 107.833 464.201 107.653 467.365 108.595C470.53 109.538 473.303 111.547 475.244 114.308C488.48 133.138 516.338 175.454 519.581 202.419C523.852 237.945 536.67 333.42 534.533 346.743C532.397 360.066 530.261 362.286 534.533 368.946C538.806 375.607 536.67 373.387 534.533 380.048C532.397 386.71 506.764 571 506.764 571C506.764 571 489.675 531.033 457.633 544.356C457.633 544.356 461.906 508.83 457.633 497.728C453.361 486.625 449.09 479.964 453.361 471.084C457.633 462.202 453.361 375.607 451.226 366.725C449.09 357.845 451.226 311.217 451.226 311.217L432 220.181L457.633 109.163Z" fill="#3F3D56"/>
<path opacity="0.1" d="M400.104 206.862L409.72 315.136C409.72 315.136 389.401 224.326 400.104 206.862Z" fill="black"/>
</g>
<defs>
<clipPath id="clip0">
<rect width="676" height="671" fill="white"/>
</clipPath>
</defs>
</svg>
