<svg width="996" height="755" viewBox="0 0 996 755" fill="none" xmlns="http://www.w3.org/2000/svg">
<path d="M584.83 332.313C573.644 350.853 571.931 373.166 568.162 394.347C562.247 427.17 550.656 458.824 544.815 491.665C542.779 503.154 541.461 514.804 538.227 526.023C533.786 541.438 525.862 555.666 518.427 569.904C505.767 594.229 494.278 619.524 489.551 646.409C488.077 654.79 489.229 666.171 497.742 667.967C500.174 668.497 502.911 668.075 504.984 669.422C506.2 670.204 506.974 671.47 507.951 672.521C511.692 676.546 518.132 677.013 523.476 675.549C528.82 674.084 533.482 670.869 538.439 668.362C558.119 658.482 581.448 659.658 603.524 661.06C607.588 661.311 612.148 661.805 614.719 664.895C616.018 666.467 616.562 668.488 617.529 670.285C620.957 676.797 630.005 679.824 636.804 676.734C639.347 675.576 641.531 673.716 644.175 672.764C652.256 669.827 660.76 676.195 669.411 676.24C681.85 676.294 691.211 663.449 703.64 663.009C712.117 662.712 719.866 668.344 728.342 668.398C734.7 668.398 740.56 665.272 746.088 662.227L783.864 641.424C773.765 627.653 761.395 615.609 747.258 605.78C736.856 598.594 734.046 584.222 727.697 573.443C723.505 566.311 719.267 559.071 717.221 551.103C715.747 545.354 715.452 539.372 713.997 533.614C711.979 525.673 707.823 518.442 704.525 510.924C691.441 481.137 691.884 447.147 679.897 416.92C676.524 408.405 672.185 400.258 669.19 391.607C665.247 380.217 663.708 368.145 659.728 356.773C655.748 345.401 648.672 334.235 637.385 329.34C632.487 327.376 627.272 326.272 621.979 326.079C608.795 325.252 597.066 327.462 584.83 332.313Z" fill="#3F3D56"/>
<path d="M632.575 234.249C629.903 233.845 627.176 234.249 624.476 234.249C617.833 234.168 615.944 241.992 609.32 242.63C601.239 243.403 590.036 238.417 583.282 242.819C582.047 243.658 580.74 244.391 579.375 245.011C573.847 247.382 567.093 246.502 562.035 249.726C556.977 252.951 555.125 259.32 555.125 265.212C554.998 267.321 555.312 269.433 556.046 271.419C556.756 273.099 557.935 274.554 558.645 276.234C559.142 277.42 559.4 278.686 559.815 279.908C560.944 282.705 562.497 285.321 564.422 287.669L576.123 303.541C579.191 307.709 577.966 312.865 578.463 317.976C578.832 321.902 579.771 325.782 579.762 329.717C579.753 333.651 578.647 337.801 575.635 340.496C582.563 340.083 589.47 339.463 596.356 338.637C602.032 337.954 607.689 337.136 613.392 336.741C625.37 335.915 637.403 336.984 649.326 338.053C647.354 335.663 646.46 332.331 645.972 329.304C644.35 319.261 643.328 308.742 646.718 299.131C647.806 296.257 649.084 293.455 650.542 290.741L654.181 283.6C659.332 273.503 664.141 263.155 665.238 251.927C665.649 249.044 665.297 246.107 664.215 243.394C662.621 239.917 659.175 237.474 655.462 236.288C651.692 235.241 647.752 234.906 643.853 235.3C640.223 235.471 636.205 234.788 632.575 234.249Z" fill="#3F3D56"/>
<path opacity="0.1" d="M629.139 672.8C627.271 673.599 625.485 674.567 623.804 675.692C625.884 676.972 628.254 677.74 630.706 677.927C633.159 678.115 635.622 677.718 637.882 676.77C639.67 675.953 641.273 674.794 642.987 673.851C638.269 672.414 633.635 671.165 629.139 672.8Z" fill="black"/>
<path opacity="0.1" d="M523.421 668.407C519.431 670.401 515.626 672.836 511.507 674.498C515.248 676.671 520.251 676.77 524.554 675.558C529.898 674.039 534.56 670.878 539.508 668.371C550.306 662.982 562.21 660.871 574.391 660.287C556.737 659.712 538.946 660.628 523.421 668.407Z" fill="black"/>
<path opacity="0.1" d="M748.318 605.771C737.915 598.585 735.114 584.213 728.757 573.434C724.565 566.302 720.326 559.062 718.281 551.094C716.807 545.345 716.512 539.363 715.056 533.605C713.048 525.664 708.892 518.433 705.594 510.915C692.51 481.128 692.943 447.138 680.965 416.911C677.584 408.396 673.244 400.249 670.25 391.598C666.316 380.208 664.722 368.136 660.787 356.764C656.853 345.392 649.731 334.226 638.444 329.331C633.626 327.229 628.309 326.411 623.039 326.07C618.593 325.783 614.131 325.858 609.698 326.294C614.066 326.65 618.349 327.681 622.385 329.349C633.644 334.244 640.748 345.41 644.728 356.782C648.708 368.154 650.256 380.226 654.191 391.616C657.185 400.267 661.561 408.414 664.897 416.929C676.875 447.156 676.442 481.146 689.525 510.933C692.833 518.451 696.988 525.682 698.997 533.623C700.452 539.381 700.747 545.363 702.221 551.112C704.267 559.08 708.505 566.32 712.697 573.452C719.046 584.231 721.856 598.549 732.258 605.789C746.4 615.611 758.776 627.649 768.883 641.415L731.106 662.218C727.948 664.063 724.634 665.644 721.202 666.943C723.875 667.831 726.671 668.319 729.494 668.389C735.842 668.389 741.702 665.263 747.23 662.218L785.006 641.415C774.885 627.636 762.486 615.591 748.318 605.771V605.771Z" fill="black"/>
<path opacity="0.1" d="M688.604 663.045C678.865 663.386 671.005 671.354 662.068 674.722C664.778 675.614 667.604 676.126 670.462 676.24C680.468 676.24 688.484 667.985 697.707 664.509C694.781 663.517 691.702 663.021 688.604 663.045V663.045Z" fill="black"/>
<path opacity="0.05" d="M638.969 191.896C638.978 192.254 639.006 192.61 639.052 192.965C639.322 190.51 639.381 188.037 639.228 185.572C639.022 187.674 638.936 189.785 638.969 191.896V191.896Z" fill="black"/>
<path opacity="0.05" d="M641.429 223.407C641.785 221.578 642.278 219.777 642.904 218.018C644.019 214.73 645.087 211.056 644.359 207.786C644.018 209.617 643.532 211.419 642.904 213.176C641.789 216.428 640.702 220.12 641.429 223.407Z" fill="black"/>
<path opacity="0.05" d="M648.533 236.899C647.981 237.497 647.299 237.968 646.538 238.279C645.776 238.589 644.954 238.732 644.129 238.696C641.19 238.471 638.767 236.468 636.537 234.6C634.307 232.731 631.774 230.8 628.834 230.764C628.087 230.828 627.333 230.791 626.596 230.656C625.877 230.397 625.241 229.957 624.753 229.381C622.709 227.198 621.37 224.477 620.901 221.557C620.524 223.82 620.674 226.137 621.341 228.336C622.008 230.535 623.174 232.559 624.753 234.258C625.238 234.837 625.875 235.278 626.596 235.534C627.333 235.674 628.087 235.71 628.834 235.642C631.774 235.642 634.298 237.609 636.537 239.477C638.776 241.346 641.144 243.349 644.129 243.573C647.114 243.798 650.33 241.175 649.445 238.435C649.251 237.869 648.94 237.346 648.533 236.899V236.899Z" fill="black"/>
<path opacity="0.05" d="M593.067 222.222C592.91 223.021 592.726 223.811 592.579 224.611C592.09 227.306 592.063 230.001 591.547 232.695C591.031 235.39 589.934 238.085 587.787 239.774C584.664 242.28 580.177 242.163 576.151 241.75C573.635 241.498 570.788 240.977 569.434 238.893C568.945 238.121 568.715 237.223 568.254 236.432C567.333 234.779 565.426 233.737 564.477 232.102C564.412 231.995 564.357 231.869 564.302 231.752C563.95 232.588 563.784 233.486 563.814 234.389C563.844 235.292 564.07 236.178 564.477 236.989C565.398 238.651 567.296 239.684 568.254 241.319C568.715 242.1 568.945 243.007 569.434 243.771C570.788 245.864 573.635 246.376 576.151 246.627C580.177 247.041 584.664 247.166 587.787 244.651C589.934 242.927 591.021 240.241 591.547 237.573C592.072 234.905 592.09 232.183 592.579 229.489C592.929 227.566 593.5 225.644 593.334 223.704C593.288 223.203 593.198 222.707 593.067 222.222V222.222Z" fill="black"/>
<path d="M558.663 274.123C559.161 275.309 559.418 276.576 559.833 277.797C560.96 280.595 562.513 283.211 564.44 285.558C566.78 288.738 570.539 296.23 572.87 299.409C574.266 294.742 576.312 290.284 578.951 286.16L558.755 254.272C558.755 254.272 557.17 255.098 555.282 260.29C555.18 261.233 555.125 262.176 555.116 263.102C554.989 265.21 555.302 267.322 556.037 269.309C556.774 270.988 557.954 272.444 558.663 274.123Z" fill="#3F3D56"/>
<path d="M645.797 268.033L653.297 285.1C658.364 275.138 664.197 262.931 665.275 251.864C665.376 249.816 665.33 247.763 665.136 245.72C664.314 244.054 663.229 242.523 661.921 241.184L645.797 268.033Z" fill="#3F3D56"/>
</svg>
