<svg width="614" height="394" viewBox="0 0 614 394" fill="none" xmlns="http://www.w3.org/2000/svg">
<path d="M561 220.173C561 209.584 556.057 201 550.328 201H463.039C457.31 201 453 209.584 453 220.173V375.159C453 385.748 457.311 394 463.039 394H550.328C556.057 394 561 385.748 561 375.159V220.173Z" fill="#2F2E41"/>
<path d="M614 373.562C614 362.973 608.627 354 602 354H419C412.373 354 407 362.973 407 373.562V375.16C407 385.749 412.373 394.001 419 394.001H602C608.627 394.001 614 385.749 614 375.16V373.562Z" fill="#2F2E41"/>
<path d="M561 321H453V354H561V321Z" fill="white"/>
</svg>
