<svg width="1145" height="891" viewBox="0 0 1145 891" fill="none" xmlns="http://www.w3.org/2000/svg">
<g filter="url(#filter0_i)">
<path d="M537.317 241C537.317 241 523.981 246.159 525.062 260.96C526.144 275.76 529.388 322.439 529.388 322.439C529.388 322.439 519.655 422.628 529.388 456.784C539.121 490.939 557.505 559.25 557.505 559.25C557.505 559.25 585.621 564.942 592.11 543.311C592.11 543.311 591.028 469.307 579.133 453.368C567.237 437.429 575.889 432.875 576.97 430.598C578.051 428.321 581.296 424.905 581.296 421.49C581.296 418.074 582.377 405.551 582.377 400.997C582.377 396.443 581.296 397.581 583.459 390.75C585.621 383.919 587.784 381.642 587.784 380.504C587.784 379.365 606.168 319.024 606.168 319.024L629.959 459.061C629.959 459.061 624.552 596.821 626.715 596.821C628.878 596.821 652.669 605.929 661.32 596.821C661.32 596.821 682.948 478.415 678.623 471.584C674.297 464.753 673.216 463.615 674.297 456.784C675.378 449.953 677.541 446.537 675.378 443.122C673.216 439.706 669.971 428.321 673.216 424.905C676.46 421.49 677.541 405.551 677.541 405.551C677.541 405.551 695.925 293.977 684.03 278.037C672.134 262.098 537.317 241 537.317 241Z" fill="#3F3D56"/>
</g>
<path d="M529.388 322.439L529.886 322.488L529.89 322.446L529.887 322.405L529.388 322.439ZM529.388 322.439C529.887 322.405 529.887 322.405 529.887 322.404L529.887 322.403L529.886 322.396L529.884 322.371L529.877 322.27L529.85 321.877L529.745 320.37C529.654 319.065 529.524 317.184 529.363 314.88C529.042 310.272 528.603 303.975 528.13 297.215C527.183 283.695 526.102 268.325 525.561 260.923C525.033 253.7 528.017 248.847 531.135 245.786C532.697 244.253 534.295 243.169 535.501 242.47C536.104 242.121 536.608 241.868 536.959 241.703C537.134 241.621 537.271 241.561 537.363 241.522C537.368 241.52 537.373 241.518 537.378 241.516L537.626 241.555C537.882 241.595 538.26 241.655 538.755 241.735C539.745 241.893 541.199 242.127 543.053 242.431C546.761 243.039 552.072 243.925 558.483 245.038C571.305 247.265 588.523 250.399 606.112 254.031C623.702 257.664 641.654 261.792 655.946 266.006C663.093 268.113 669.313 270.238 674.111 272.328C676.509 273.373 678.543 274.406 680.156 275.418C681.774 276.434 682.939 277.412 683.629 278.337C685.034 280.22 686.036 283.595 686.671 288.162C687.302 292.705 687.56 298.344 687.534 304.684C687.484 317.361 686.303 332.783 684.749 347.72C683.195 362.654 681.27 377.092 679.733 387.797C678.964 393.15 678.293 397.568 677.814 400.649C677.574 402.189 677.383 403.394 677.251 404.215C677.185 404.625 677.134 404.939 677.1 405.15L677.061 405.389L677.051 405.449L677.049 405.465L677.048 405.468C677.048 405.469 677.048 405.469 677.088 405.476C677.138 405.484 677.25 405.503 677.5 405.544L677.048 405.469L677.044 405.493L677.042 405.517L677.042 405.517L677.042 405.519L677.042 405.528L677.039 405.561L677.03 405.694C677.021 405.81 677.008 405.982 676.99 406.202C676.954 406.642 676.9 407.275 676.824 408.046C676.672 409.588 676.437 411.677 676.101 413.872C675.764 416.068 675.329 418.358 674.779 420.304C674.221 422.279 673.571 423.805 672.853 424.561C671.924 425.54 671.503 427.032 671.382 428.676C671.26 430.334 671.435 432.229 671.777 434.103C672.46 437.839 673.828 441.608 674.956 443.389C675.937 444.939 675.959 446.493 675.563 448.579C675.409 449.389 675.196 450.259 674.959 451.232C674.888 451.522 674.815 451.821 674.74 452.131C674.418 453.47 674.076 454.979 673.803 456.706C673.258 460.146 673.243 462.236 673.959 464.345C674.572 466.153 675.722 467.958 677.436 470.649C677.679 471.031 677.934 471.431 678.2 471.852C678.287 471.989 678.382 472.241 678.463 472.644C678.543 473.038 678.603 473.54 678.642 474.148C678.72 475.365 678.71 476.966 678.622 478.904C678.445 482.778 677.957 487.949 677.247 493.976C675.829 506.027 673.533 521.46 671.1 536.685C668.667 551.91 666.099 566.921 664.139 578.127C663.159 583.73 662.332 588.381 661.749 591.631C661.457 593.257 661.227 594.532 661.07 595.4C660.991 595.834 660.931 596.167 660.89 596.391L660.855 596.582C658.807 598.674 655.869 599.754 652.506 600.167C649.09 600.586 645.289 600.308 641.661 599.742C638.037 599.177 634.61 598.328 631.947 597.618C631.265 597.437 630.621 597.261 630.038 597.101C629.497 596.954 629.01 596.82 628.596 596.711C628.157 596.595 627.778 596.499 627.472 596.432C627.314 596.398 627.164 596.368 627.029 596.348C627.027 596.341 627.025 596.333 627.024 596.326C626.977 596.096 626.933 595.734 626.893 595.234C626.815 594.242 626.763 592.775 626.733 590.893C626.674 587.135 626.708 581.76 626.809 575.304C627.012 562.393 627.485 545.176 628.026 527.956C628.566 510.738 629.175 493.519 629.648 480.604C629.884 474.147 630.087 468.766 630.231 464.999C630.302 463.116 630.359 461.636 630.399 460.627L630.443 459.475L630.455 459.18L630.458 459.105L630.458 459.087L630.459 459.082C630.459 459.081 630.459 459.08 629.959 459.061L630.459 459.08L630.461 459.028L630.452 458.977L606.661 318.94L605.69 318.878L606.168 319.024C605.69 318.878 605.69 318.878 605.69 318.879L605.689 318.881L605.686 318.889L605.676 318.922L605.637 319.051L605.483 319.556L604.9 321.473C604.397 323.126 603.679 325.487 602.817 328.325C601.094 334 598.796 341.578 596.497 349.192C594.199 356.806 591.901 364.457 590.177 370.275C589.315 373.184 588.597 375.636 588.093 377.398C587.842 378.278 587.643 378.988 587.508 379.497C587.44 379.75 587.387 379.958 587.35 380.112C587.332 380.189 587.317 380.257 587.306 380.313C587.298 380.356 587.284 380.432 587.284 380.504C587.284 380.657 587.204 380.916 586.964 381.403C586.833 381.669 586.675 381.965 586.489 382.313C586.341 382.592 586.174 382.904 585.988 383.262C585.167 384.847 584.074 387.151 582.982 390.599C581.9 394.015 581.607 395.504 581.607 396.727C581.607 397.229 581.657 397.683 581.711 398.179C581.722 398.28 581.734 398.382 581.745 398.488C581.811 399.116 581.877 399.881 581.877 400.997C581.877 403.253 581.608 407.502 581.337 411.638C581.318 411.939 581.298 412.239 581.278 412.538C581.03 416.326 580.796 419.887 580.796 421.49C580.796 423.052 580.049 424.659 579.11 426.212C578.743 426.82 578.356 427.404 577.983 427.967C577.882 428.12 577.783 428.271 577.684 428.42C577.229 429.112 576.806 429.779 576.518 430.384C576.416 430.6 576.206 430.873 575.883 431.253C575.808 431.342 575.728 431.435 575.643 431.533C575.383 431.836 575.085 432.183 574.785 432.567C573.982 433.596 573.127 434.942 572.699 436.744C571.838 440.367 572.744 445.643 578.732 453.667C580.172 455.596 581.469 458.437 582.631 461.966C583.79 465.488 584.803 469.664 585.688 474.241C587.457 483.396 588.706 494.121 589.584 504.359C590.462 514.596 590.968 524.337 591.255 531.519C591.399 535.109 591.487 538.06 591.54 540.113C591.567 541.139 591.584 541.941 591.595 542.486C591.6 542.758 591.604 542.966 591.606 543.106L591.609 543.241C588.424 553.745 580.015 557.637 572.293 558.899C568.423 559.531 564.747 559.496 562.035 559.303C560.68 559.206 559.569 559.069 558.797 558.957C558.412 558.901 558.111 558.852 557.908 558.816C557.907 558.816 557.906 558.816 557.906 558.815L557.779 558.344C557.642 557.836 557.439 557.085 557.178 556.118C556.657 554.183 555.901 551.381 554.963 547.912C553.087 540.974 550.485 531.368 547.579 520.694C541.766 499.347 534.736 473.728 529.869 456.647C527.454 448.171 526.238 435.557 525.782 421.367C525.326 407.188 525.63 391.476 526.238 376.824C526.846 362.173 527.758 348.588 528.518 338.666C528.898 333.705 529.24 329.66 529.487 326.855C529.61 325.453 529.71 324.361 529.779 323.619C529.813 323.248 529.84 322.965 529.858 322.775L529.879 322.56L529.884 322.506L529.885 322.492L529.886 322.489C529.886 322.488 529.886 322.488 529.388 322.439ZM627.074 596.514C627.074 596.513 627.073 596.513 627.073 596.512C627.075 596.515 627.075 596.516 627.074 596.514Z" stroke="black"/>
<defs>
<filter id="filter0_i" x="525" y="241" width="163.036" height="363.869" filterUnits="userSpaceOnUse" color-interpolation-filters="sRGB">
<feFlood flood-opacity="0" result="BackgroundImageFix"/>
<feBlend mode="normal" in="SourceGraphic" in2="BackgroundImageFix" result="shape"/>
<feColorMatrix in="SourceAlpha" type="matrix" values="0 0 0 0 0 0 0 0 0 0 0 0 0 0 0 0 0 0 127 0" result="hardAlpha"/>
<feOffset dy="4"/>
<feGaussianBlur stdDeviation="2"/>
<feComposite in2="hardAlpha" operator="arithmetic" k2="-1" k3="1"/>
<feColorMatrix type="matrix" values="0 0 0 0 0 0 0 0 0 0 0 0 0 0 0 0 0 0 0.25 0"/>
<feBlend mode="normal" in2="shape" result="effect1_innerShadow"/>
</filter>
</defs>
</svg>
