<svg width="516" height="246" viewBox="0 0 516 246" fill="none" xmlns="http://www.w3.org/2000/svg">
<path d="M262.351 125.93L259.223 171.284C259.223 171.284 250.882 180.668 249.839 191.094C248.797 201.521 237.849 220.288 237.849 220.288C237.849 220.288 234.721 223.416 244.105 222.373C253.489 221.331 269.649 219.767 271.213 215.075C272.777 210.383 271.735 190.573 281.118 188.488V207.255H285.81L284.246 186.924C284.246 186.924 295.194 171.806 281.64 162.943L285.81 128.537L262.351 125.93Z" fill="#2F2E41"/>
<path d="M318 136.426L336.767 171.354C336.767 171.354 334.161 184.387 336.767 188.558C339.374 192.728 339.374 206.804 338.853 208.368C338.331 209.932 337.81 224.007 350.843 225.05C350.843 225.05 353.971 228.178 357.62 224.007C361.269 219.837 367.004 212.017 364.918 207.847C362.833 203.676 355.535 169.269 355.013 168.227C354.492 167.184 339.374 126 339.374 126L318 136.426Z" fill="#2F2E41"/>
</svg>
