<svg width="1145" height="891" viewBox="0 0 1145 891" fill="none" xmlns="http://www.w3.org/2000/svg">
<path d="M486.878 269.359H480.357L452.641 369.624C452.641 369.624 452.097 436.286 458.619 468.805C458.619 468.805 469.488 454.713 477.096 454.713C484.705 454.713 491.769 383.715 491.769 383.715C491.769 383.715 521.659 282.367 486.878 269.359Z" fill="#3F3D56"/>
<path d="M541.204 229.671C539.921 229.912 538.732 230.509 537.774 231.394C536.816 232.279 536.128 233.416 535.789 234.673C534.841 237.788 533.371 240.72 531.442 243.345C531.442 243.345 480.357 267.192 480.357 270.443C480.357 273.695 501.008 343.068 501.008 343.068C501.008 343.068 502.095 386.425 493.4 396.181C484.705 405.936 476.009 441.706 478.183 444.958C480.357 448.21 462.966 455.797 469.488 461.217C476.009 466.637 567.309 518.666 621.655 494.819C621.655 494.819 622.742 485.064 621.655 478.56C620.568 472.057 628.176 450.378 626.002 442.79C623.828 435.203 626.002 357.159 626.002 357.159L637.204 264.746C637.418 262.99 637.005 261.216 636.037 259.734C635.07 258.252 633.61 257.158 631.913 256.643C619.386 252.846 590.335 237.3 586.33 240.635C581.145 244.953 548.793 242.012 541.204 229.671Z" fill="#3F3D56"/>
<path d="M627.089 256.352L627.159 256.325C628.713 255.703 630.431 255.615 632.041 256.075C633.651 256.535 635.062 257.516 636.05 258.864C642.785 268.056 656.96 288.714 658.61 301.878C660.783 319.221 667.305 365.83 666.218 372.334C665.131 378.838 664.044 379.922 666.218 383.173C668.392 386.425 667.305 385.341 666.218 388.593C665.131 391.845 652.088 481.812 652.088 481.812C652.088 481.812 643.393 462.301 627.089 468.805C627.089 468.805 629.263 451.462 627.089 446.042C624.915 440.622 622.742 437.37 624.915 433.035C627.089 428.699 624.915 386.425 623.829 382.089C622.742 377.754 623.829 354.991 623.829 354.991L614.046 310.549L627.089 256.352Z" fill="#3F3D56"/>
<path opacity="0.1" d="M619.104 289.533L628.72 397.807C628.72 397.807 608.401 306.997 619.104 289.533Z" fill="black"/>
</svg>
